<svg xmlns="http://www.w3.org/2000/svg" viewBox="0 0 436 436"><defs><style>.cls-1{fill:#a9a9a9}.cls-2{fill:#fff}</style></defs><title>group7</title><g id="Layer_2" data-name="Layer 2"><g id="Layer_1-2" data-name="Layer 1"><circle cx="218" cy="218" r="218" class="cls-1"/><path d="M333,126a142,142,0,0,0-92-59l-26-2A143,143,0,0,0,75,181c-14,77,37,152,115,166l26,2h0A143,143,0,0,0,333,126ZM89,184a128,128,0,0,1,12-35c2,21,10,38,17,54s15,36,14,56a166,166,0,0,1-7,39A128,128,0,0,1,89,184ZM215,335l-23-2a127,127,0,0,1-55-25,179,179,0,0,0,9-49c1-23-7-43-15-62s-18-43-16-71A128,128,0,0,1,215,79l23,2a127,127,0,0,1,82,53l8,14c0,15-23,29-39,34-73,21-90,68-91,104-1,18,7,36,16,49ZM341,230A128,128,0,0,1,234,334c-10-10-20-30-20-48,1-45,28-75,81-90,15-4,28-12,37-21l6-7A127,127,0,0,1,341,230Z" class="cls-2"/></g></g></svg>