<svg xmlns="http://www.w3.org/2000/svg" viewBox="0 0 436 436"><defs><style>.cls-1{fill:#a9a9a9}.cls-2{fill:#fff}</style></defs><title>group4</title><g id="Layer_2" data-name="Layer 2"><g id="Layer_1-2" data-name="Layer 1"><circle cx="218" cy="218" r="218" class="cls-1"/><path d="M361,92,342,74c-12-12-32-13-45-2l-33,28h-1l-32,53-20,7a5,5,0,0,0-2,9l55,55,4,2h1a5,5,0,0,0,4-3l7-20,54-32h1l28-32C374,124,373,104,361,92Zm-6,38-27,31-54,33-2,3-5,14-12-12h0l-18-18h0l-12-12,14-5,3-2,32-54,32-28a23,23,0,0,1,31,1l19,19A23,23,0,0,1,355,131Z" class="cls-2"/><path d="M346,274a57,57,0,0,0-58-14L177,149a57,57,0,0,0-76-71,5,5,0,0,0-2,9l33,33-22,22L77,108H72a5,5,0,0,0-4,3,57,57,0,0,0,71,76l42,42-52,52L97,297l-2,2L80,329a5,5,0,0,0,1,6l18,18,4,2h2l30-15,2-2,18-33,52-52,44,44a57,57,0,0,0,76,71,5,5,0,0,0,2-9l-33-33,22-22,33,33h5a5,5,0,0,0,4-3A57,57,0,0,0,346,274ZM148,298h-1l-18,32-25,12L91,330l12-25,32-18h1l52-52,11,11Zm204,26-31-31a5,5,0,0,0-7,0l-30,30a5,5,0,0,0,0,7l31,31a47,47,0,0,1-53-63,5,5,0,0,0-1-6L145,176l-4-2h-2a47,47,0,0,1-63-53l31,31a5,5,0,0,0,7,0l30-30a5,5,0,0,0,0-7L113,85a47,47,0,0,1,53,63,5,5,0,0,0,1,6L283,270a5,5,0,0,0,6,1,47,47,0,0,1,63,53Z" class="cls-2"/></g></g></svg>