<svg xmlns="http://www.w3.org/2000/svg" viewBox="0 0 436 436"><defs><style>.cls-1{fill:#a9a9a9;}.cls-2{fill:#fff;}</style></defs><title>grup6</title><g id="Layer_2" data-name="Layer 2"><g id="Layer_1-2" data-name="Layer 1"><circle class="cls-1" cx="218" cy="218" r="218"/><circle class="cls-2" cx="151" cy="250" r="13"/><circle class="cls-2" cx="284" cy="250" r="13"/><path class="cls-2" d="M377,245a37,37,0,0,0-31-37v-4c0-67-52-124-119-130A129,129,0,0,0,89,203v6a37,37,0,0,0,0,74c2,28,15,49,39,62s50,17,90,17,69-6,90-17,36-34,39-62A37,37,0,0,0,377,245ZM71,245a24,24,0,0,1,18-23v46A24,24,0,0,1,71,245Zm262,26c0,29-11,49-32,61s-46,16-83,16-64-5-83-16-32-32-32-61V203A116,116,0,0,1,184,92c36,0,56,27,56,46a26,26,0,0,1-26,26c-15,0-26-16-16-32a7,7,0,0,1,8-3c6,2,12-5,7-12h-2a28,28,0,0,0-30,28,33,33,0,0,0,33,33,40,40,0,0,0,39-39c0-14-7-28-18-39a67,67,0,0,0-16-11A116,116,0,0,1,333,203v69Zm13-3V222a24,24,0,0,1,0,46Z"/><path class="cls-2" d="M243,268a36,36,0,0,1-51,0,7,7,0,0,0-9,9,49,49,0,0,0,70,0,7,7,0,0,0-9-9Z"/></g></g></svg>