<svg xmlns="http://www.w3.org/2000/svg" viewBox="0 0 436 436"><defs><style>.cls-1{fill:#a9a9a9}.cls-2{fill:#fff}</style></defs><title>group5</title><g id="Layer_2" data-name="Layer 2"><g id="Layer_1-2" data-name="Layer 1"><circle cx="218" cy="218" r="218" class="cls-1"/><path d="M276,201a26,26,0,0,0-19,8,6,6,0,0,0,8,8,14,14,0,0,1,20,0l4,2,4-2a6,6,0,0,0,0-8A26,26,0,0,0,276,201Z" class="cls-2"/><path d="M161,213a14,14,0,0,1,10,4l4,2,4-2a6,6,0,0,0,0-8,26,26,0,0,0-37,0,6,6,0,1,0,8,8A14,14,0,0,1,161,213Z" class="cls-2"/><path d="M267,272a6,6,0,0,0-8,0,26,26,0,0,0-8,16,144,144,0,0,1-66,0,26,26,0,0,0-8-16,6,6,0,1,0-8,8,14,14,0,0,1,0,20,6,6,0,0,0,0,8l4,2,4-2a26,26,0,0,0,6-9,155,155,0,0,0,69,0,26,26,0,0,0,6,9l4,2,4-2a6,6,0,0,0,0-8,14,14,0,0,1,0-20A6,6,0,0,0,267,272Z" class="cls-2"/><circle cx="161" cy="245" r="10" class="cls-2"/><circle cx="276" cy="245" r="10" class="cls-2"/><path d="M367,221a28,28,0,0,0-10-21,28,28,0,0,0-1-42,28,28,0,0,0-15-40,28,28,0,0,0-26-37h-5a28,28,0,0,0-40-10,28,28,0,0,0-36-4,28,28,0,0,0-15-4h-1a28,28,0,0,0-16,4,28,28,0,0,0-36,5,28,28,0,0,0-15-4,28,28,0,0,0-25,15h-5a28,28,0,0,0-26,37,28,28,0,0,0-15,40,28,28,0,0,0-1,42,28,28,0,0,0,1,43,31,31,0,0,0,24,40v25a50,50,0,0,0,15,35,48,48,0,0,0,34,14h0a48,48,0,0,0,24-6,49,49,0,0,0,84,0,48,48,0,0,0,24,6h0a48,48,0,0,0,34-14,50,50,0,0,0,15-35V283a31,31,0,0,0,24-40A28,28,0,0,0,367,221ZM91,252a19,19,0,0,1,15-19q-1,19-1,37A19,19,0,0,1,91,252Zm230,56a38,38,0,0,1-11,27,36,36,0,0,1-25,11h0a36,36,0,0,1-22-8h-2a6,6,0,0,0-7,4,36,36,0,0,1-68,0v-2l-4-2h-4a36,36,0,0,1-48-3,38,38,0,0,1-11-27V273a552,552,0,0,1,11-110,28,28,0,0,0,39,9,28,28,0,0,0,36,5,28,28,0,0,0,15,4h2a28,28,0,0,0,15-4,28,28,0,0,0,36-5,28,28,0,0,0,39-9,553,553,0,0,1,11,110Zm12-37q0-19-1-37a19,19,0,0,1,1,37Zm-2-49a563,563,0,0,0-9-62,11,11,0,0,0-9-9h0a11,11,0,0,0-12,6,16,16,0,0,1-26,4l-5-2a6,6,0,0,0-4,3,16,16,0,0,1-25,4,6,6,0,0,0-8,0,16,16,0,0,1-11,4h-2a16,16,0,0,1-11-4,6,6,0,0,0-8,0,16,16,0,0,1-25-4,6,6,0,0,0-4-3l-5,2a16,16,0,0,1-26-4,11,11,0,0,0-12-6h0a11,11,0,0,0-9,9h0a563,563,0,0,0-9,62,31,31,0,0,0-20,11,16,16,0,0,1,7-26,6,6,0,0,0,0-11,16,16,0,0,1-1-30,6,6,0,0,0,2-9,16,16,0,0,1,11-27,6,6,0,0,0,4-10,16,16,0,0,1-3-10,16,16,0,0,1,16-16h10a6,6,0,0,0,3-4,16,16,0,0,1,16-12,16,16,0,0,1,12,5l5,2a6,6,0,0,0,4-3,16,16,0,0,1,25-4,6,6,0,0,0,8,0,16,16,0,0,1,11-4h2a16,16,0,0,1,11,4,6,6,0,0,0,8,0,16,16,0,0,1,25,4,6,6,0,0,0,4,3l5-2a16,16,0,0,1,28,6,6,6,0,0,0,3,4h10a16,16,0,0,1,16,16,16,16,0,0,1-3,10,6,6,0,0,0,4,10,16,16,0,0,1,11,27,6,6,0,0,0,2,9,16,16,0,0,1-1,30,6,6,0,0,0,0,11,16,16,0,0,1,7,26A31,31,0,0,0,330,221Z" class="cls-2"/></g></g></svg>