<svg xmlns="http://www.w3.org/2000/svg" viewBox="0 0 436 436"><defs><style>.cls-1{fill:#a9a9a9}.cls-2{fill:#fff}</style></defs><title>group3</title><g id="Layer_2" data-name="Layer 2"><g id="Layer_1-2" data-name="Layer 1"><circle cx="218" cy="218" r="218" class="cls-1"/><path d="M166,147a15,15,0,0,0-15,15,5,5,0,1,0,10,0,5,5,0,0,1,9,0,5,5,0,1,0,10,0A15,15,0,0,0,166,147Z" class="cls-2"/><path d="M186,279a18,18,0,0,0-18,17c-1,25,8,47,25,61s30,16,51,16a160,160,0,0,0,35-4,18,18,0,1,0-8-35c-26,6-45,4-56-5s-12-12-12-32A18,18,0,0,0,186,279Zm23,58c13,11,36,13,65,7a8,8,0,1,1,3,15,150,150,0,0,1-33,4c-18,0-33-5-45-14s-22-31-21-52a8,8,0,0,1,2-5l5-2h0a8,8,0,0,1,8,8C193,321,204,333,209,337Z" class="cls-2"/><path d="M348,157a23,23,0,0,0-17-23v-6a5,5,0,0,0-5-4,5,5,0,0,0-5,6,83,83,0,0,1,1,9h0a60,60,0,0,1,0,11l-5-2c-16-6-45-16-71-27-42-18-48-28-49-31l-3-3a5,5,0,0,0-6,2c-16,24-50,57-68,63-1-24,7-47,22-64s46-31,79-31,49,6,66,17a81,81,0,0,1,30,37,5,5,0,1,0,9-4,92,92,0,0,0-34-42c-19-13-43-19-71-19s-66,12-86,34a95,95,0,0,0-24,53,24,24,0,0,0-16,35,17,17,0,0,0,16,24v96a43,43,0,0,0,6,22,43,43,0,0,0,28,20v19s2,5,5,5a5,5,0,0,0,5-5V308a67,67,0,0,1,23-50,110,110,0,0,0,87,0,66,66,0,0,1,23,50,18,18,0,0,0,9,16,69,69,0,0,1,35,55H153v-6a5,5,0,0,0-5-5c-3,0-5,5-5,5v6a10,10,0,0,0,10,10H331a11,11,0,0,0,9-11,79,79,0,0,0-40-62,8,8,0,0,1-4-7,76,76,0,0,0-23-55,111,111,0,0,0,51-61h5a17,17,0,0,0,16-24A24,24,0,0,0,348,157Zm-248,0a14,14,0,0,1,8-12,113,113,0,0,0,0,12h0l-8,2A14,14,0,0,1,100,157Zm9,26a7,7,0,0,1,0-15Zm34,126v12a33,33,0,0,1-24-32V202a114,114,0,0,0,48,51A77,77,0,0,0,143,309Zm76-52a101,101,0,0,1-100-96c12-3,26-14,37-24a255,255,0,0,0,34-37c13,14,51,32,122,58l7,2A101,101,0,0,1,219,257Zm110-74h-2a110,110,0,0,0,2-14,7,7,0,0,1,0,15Zm9-22-8-2h0a50,50,0,0,0,2-12,14,14,0,0,1,6,15Z" class="cls-2"/><path d="M273,147a15,15,0,0,0-15,15,5,5,0,1,0,10,0,5,5,0,0,1,9,0,5,5,0,1,0,10,0A15,15,0,0,0,273,147Z" class="cls-2"/><path d="M227,183a10,10,0,0,1-15,0,5,5,0,0,0-7,7,20,20,0,0,0,30,0,5,5,0,0,0-7-7Z" class="cls-2"/></g></g></svg>