<svg xmlns="http://www.w3.org/2000/svg" viewBox="0 0 436 436"><defs><style>.cls-1{fill:#a9a9a9}.cls-2{fill:#fff;stroke:#fff;stroke-width:1.06px}</style></defs><title>group2</title><g id="Layer_2" data-name="Layer 2"><g id="Layer_1-2" data-name="Layer 1"><circle cx="218" cy="218" r="218" class="cls-1"/><g id="surface1"><path d="M102,362c27,4,54-22,71-38l5-5h1c19-18,45-41,9-106,0-1-1-4-1-8a151,151,0,0,1,66,0v8c-35,65-10,89,9,106h1l5,5c15,15,40,38,64,38h6c13-2,24-11,32-27,26-52,2-83-5-90C341,115,262,114,258,114a7,7,0,0,0-7,7h0a383,383,0,0,1,3,47l-17-2V82a7,7,0,0,0-7-7H209a7,7,0,0,0-7,7v85l-17,2a387,387,0,0,1,3-47,7,7,0,0,0-6-7h-1c-4,0-83,2-106,130-7,8-31,39-5,90C79,350,89,360,102,362ZM87,252a7,7,0,0,0,2-4c17-97,66-116,85-120a384,384,0,0,0-2,49,7,7,0,0,0,6,7h2l29-4a7,7,0,0,0,7-7V88h9v85a6,6,0,0,0,6,7l29,4a7,7,0,0,0,8-5v-2a386,386,0,0,0-2-49c19,4,68,23,85,120l2,4c1,1,29,27,4,76-6,12-13,19-22,20-20,3-45-21-59-34l-5-5h-1c-18-17-37-35-6-91v-2a146,146,0,0,0,2-15,7,7,0,0,0-5-7,163,163,0,0,0-84,0,7,7,0,0,0-5,7,143,143,0,0,0,2,16v2c31,56,12,74-6,91h-1l-5,5c-13,13-39,38-59,34-9-1-16-8-22-20C58,278,86,253,87,252Z" class="cls-2"/></g></g></g></svg>