<svg xmlns="http://www.w3.org/2000/svg" viewBox="0 0 436 436"><defs><style>.cls-1{fill:#a9a9a9;}.cls-2{fill:#fff;}</style></defs><title>group1</title><g id="Layer_2" data-name="Layer 2"><g id="Layer_1-2" data-name="Layer 1"><circle class="cls-1" cx="218" cy="218" r="218"/><path class="cls-2" d="M384,214H355c12-28,11-51,6-67-8-28-34-58-74-58a90,90,0,0,0-32,6c-19,7-31,15-37,19s-18-12-37-19a92,92,0,0,0-32-6c-39,0-66,30-74,58-5,16-6,41,9,73H50a5,5,0,0,0-5,5,5,5,0,0,0,5,4H92l6,9c34,49,108,103,122,106h1s83-52,121-106a98,98,0,0,0,9-15h34a5,5,0,0,0,5-5C390,216,384,214,384,214Zm-53,19c-35,49-99,89-113,98-14-9-80-50-115-101h48a6,6,0,0,0,5-3l22-44,35,90a5,5,0,0,0,5,3h-1a5,5,0,0,0,5-4l31-105,16,53a5,5,0,0,0,4,4,6,6,0,0,0,5-2l13-19,11,19a5,5,0,0,0,5,3h29Zm12-19H311l-13-23a5,5,0,0,0-5-3,5,5,0,0,0-5,2l-11,16-18-59c-1-2-3-4-5-4a6,6,0,0,0-5,4L218,254l-33-85a5,5,0,0,0-5-3,5,5,0,0,0-5,3l-26,51H98c-13-24-17-47-11-68s30-48,64-48a87,87,0,0,1,28,5c24,9,37,19,37,19a5,5,0,0,0,7,0s13-10,37-19a79,79,0,0,1,28-5c34,0,57,25,64,48S354,192,344,214Z"/></g></g></svg>